<mxfile host="app.diagrams.net" agent="Mozilla/5.0 (Macintosh; Intel Mac OS X 10_15_7) AppleWebKit/605.1.15 (KHTML, like Gecko) Version/18.6 Safari/605.1.15" version="28.2.3">
  <diagram name="Page-1" id="a7904f86-f2b4-8e86-fa97-74104820619b">
    <mxGraphModel dx="5344" dy="3102" grid="1" gridSize="10" guides="1" tooltips="1" connect="1" arrows="1" fold="1" page="1" pageScale="1" pageWidth="1100" pageHeight="850" background="#FFFFFF" math="0" shadow="0">
      <root>
        <mxCell id="0" />
        <mxCell id="1" parent="0" />
        <mxCell id="0PUOpv4q3WC7BL36jvcQ-1" value="" style="rounded=0;whiteSpace=wrap;html=1;fillColor=light-dark(#000000,#000000);" parent="1" vertex="1">
          <mxGeometry x="-1295" y="-850" width="1080" height="1980" as="geometry" />
        </mxCell>
        <mxCell id="CKcXtdMAVw7ahf70taSX-3" value="&lt;b&gt;User&lt;/b&gt;" style="swimlane;fontStyle=0;childLayout=stackLayout;horizontal=1;startSize=30;horizontalStack=0;resizeParent=1;resizeParentMax=0;resizeLast=0;collapsible=1;marginBottom=0;whiteSpace=wrap;html=1;fillColor=light-dark(#14BEC4,#14BEC4);fontColor=#ffffff;strokeColor=#006EAF;rounded=1;arcSize=26;" parent="1" vertex="1">
          <mxGeometry x="-862.0031775700934" y="-170" width="173.85233644859812" height="201.3314447592068" as="geometry" />
        </mxCell>
        <mxCell id="CKcXtdMAVw7ahf70taSX-4" value="🔑 id &lt;span style=&quot;color: rgb(150, 150, 150);&quot;&gt;bigint&lt;/span&gt;" style="text;strokeColor=none;fillColor=none;align=left;verticalAlign=middle;spacingLeft=4;spacingRight=4;overflow=hidden;points=[[0,0.5],[1,0.5]];portConstraint=eastwest;rotatable=0;whiteSpace=wrap;html=1;" parent="CKcXtdMAVw7ahf70taSX-3" vertex="1">
          <mxGeometry y="30" width="173.85233644859812" height="24.475920679886688" as="geometry" />
        </mxCell>
        <mxCell id="CKcXtdMAVw7ahf70taSX-5" value="username&amp;nbsp;&lt;span style=&quot;caret-color: rgb(150, 150, 150); color: rgb(150, 150, 150);&quot;&gt;varchar(50)&lt;/span&gt;" style="text;strokeColor=none;fillColor=none;align=left;verticalAlign=middle;spacingLeft=4;spacingRight=4;overflow=hidden;points=[[0,0.5],[1,0.5]];portConstraint=eastwest;rotatable=0;whiteSpace=wrap;html=1;" parent="CKcXtdMAVw7ahf70taSX-3" vertex="1">
          <mxGeometry y="54.475920679886684" width="173.85233644859812" height="24.475920679886688" as="geometry" />
        </mxCell>
        <mxCell id="CKcXtdMAVw7ahf70taSX-6" value="password&amp;nbsp;&lt;span style=&quot;caret-color: rgb(150, 150, 150); color: rgb(150, 150, 150);&quot;&gt;text&lt;/span&gt;" style="text;strokeColor=none;fillColor=none;align=left;verticalAlign=middle;spacingLeft=4;spacingRight=4;overflow=hidden;points=[[0,0.5],[1,0.5]];portConstraint=eastwest;rotatable=0;whiteSpace=wrap;html=1;" parent="CKcXtdMAVw7ahf70taSX-3" vertex="1">
          <mxGeometry y="78.95184135977337" width="173.85233644859812" height="24.475920679886688" as="geometry" />
        </mxCell>
        <mxCell id="CKcXtdMAVw7ahf70taSX-13" value="first_name&amp;nbsp;&lt;span style=&quot;caret-color: rgb(150, 150, 150); color: rgb(150, 150, 150);&quot;&gt;varchar(50)&lt;/span&gt;" style="text;strokeColor=none;fillColor=none;align=left;verticalAlign=middle;spacingLeft=4;spacingRight=4;overflow=hidden;points=[[0,0.5],[1,0.5]];portConstraint=eastwest;rotatable=0;whiteSpace=wrap;html=1;" parent="CKcXtdMAVw7ahf70taSX-3" vertex="1">
          <mxGeometry y="103.42776203966005" width="173.85233644859812" height="24.475920679886688" as="geometry" />
        </mxCell>
        <mxCell id="CKcXtdMAVw7ahf70taSX-14" value="last_name&amp;nbsp;&lt;span style=&quot;caret-color: rgb(150, 150, 150); color: rgb(150, 150, 150);&quot;&gt;varchar(50)&lt;/span&gt;" style="text;strokeColor=none;fillColor=none;align=left;verticalAlign=middle;spacingLeft=4;spacingRight=4;overflow=hidden;points=[[0,0.5],[1,0.5]];portConstraint=eastwest;rotatable=0;whiteSpace=wrap;html=1;" parent="CKcXtdMAVw7ahf70taSX-3" vertex="1">
          <mxGeometry y="127.90368271954674" width="173.85233644859812" height="24.475920679886688" as="geometry" />
        </mxCell>
        <mxCell id="CKcXtdMAVw7ahf70taSX-15" value="email&amp;nbsp;&lt;span style=&quot;caret-color: rgb(150, 150, 150); color: rgb(150, 150, 150);&quot;&gt;varchar(100)&lt;/span&gt;" style="text;strokeColor=none;fillColor=none;align=left;verticalAlign=middle;spacingLeft=4;spacingRight=4;overflow=hidden;points=[[0,0.5],[1,0.5]];portConstraint=eastwest;rotatable=0;whiteSpace=wrap;html=1;" parent="CKcXtdMAVw7ahf70taSX-3" vertex="1">
          <mxGeometry y="152.37960339943342" width="173.85233644859812" height="24.475920679886688" as="geometry" />
        </mxCell>
        <mxCell id="CKcXtdMAVw7ahf70taSX-16" value="phone&amp;nbsp;&lt;span style=&quot;caret-color: rgb(150, 150, 150); color: rgb(150, 150, 150);&quot;&gt;varchar(15)&lt;/span&gt;" style="text;strokeColor=none;fillColor=none;align=left;verticalAlign=middle;spacingLeft=4;spacingRight=4;overflow=hidden;points=[[0,0.5],[1,0.5]];portConstraint=eastwest;rotatable=0;whiteSpace=wrap;html=1;" parent="CKcXtdMAVw7ahf70taSX-3" vertex="1">
          <mxGeometry y="176.8555240793201" width="173.85233644859812" height="24.475920679886688" as="geometry" />
        </mxCell>
        <mxCell id="CKcXtdMAVw7ahf70taSX-17" value="Customer" style="swimlane;fontStyle=1;childLayout=stackLayout;horizontal=1;startSize=26;horizontalStack=0;resizeParent=1;resizeParentMax=0;resizeLast=0;collapsible=1;marginBottom=0;align=center;fontSize=14;fillColor=light-dark(#14BEC4,#14BEC4);fontColor=#ffffff;strokeColor=#006EAF;rounded=1;" parent="1" vertex="1">
          <mxGeometry x="-1083.4522897196262" y="213.45609065155804" width="139.0818691588785" height="197.3314447592068" as="geometry" />
        </mxCell>
        <mxCell id="CKcXtdMAVw7ahf70taSX-18" value="🔑 id&amp;nbsp;&lt;span style=&quot;caret-color: rgb(150, 150, 150); color: rgb(150, 150, 150);&quot;&gt;bigint&lt;/span&gt;" style="text;strokeColor=none;fillColor=none;spacingLeft=4;spacingRight=4;overflow=hidden;rotatable=0;points=[[0,0.5],[1,0.5]];portConstraint=eastwest;fontSize=12;whiteSpace=wrap;html=1;" parent="CKcXtdMAVw7ahf70taSX-17" vertex="1">
          <mxGeometry y="26" width="139.0818691588785" height="24.47592067988668" as="geometry" />
        </mxCell>
        <mxCell id="CKcXtdMAVw7ahf70taSX-120" value="username&amp;nbsp;&lt;span style=&quot;caret-color: rgb(150, 150, 150); color: rgb(150, 150, 150);&quot;&gt;varchar(50)&lt;/span&gt;" style="text;strokeColor=none;fillColor=none;align=left;verticalAlign=middle;spacingLeft=4;spacingRight=4;overflow=hidden;points=[[0,0.5],[1,0.5]];portConstraint=eastwest;rotatable=0;whiteSpace=wrap;html=1;" parent="CKcXtdMAVw7ahf70taSX-17" vertex="1">
          <mxGeometry y="50.475920679886684" width="139.0818691588785" height="24.47592067988668" as="geometry" />
        </mxCell>
        <mxCell id="CKcXtdMAVw7ahf70taSX-121" value="password&amp;nbsp;&lt;span style=&quot;caret-color: rgb(150, 150, 150); color: rgb(150, 150, 150);&quot;&gt;text&lt;/span&gt;" style="text;strokeColor=none;fillColor=none;align=left;verticalAlign=middle;spacingLeft=4;spacingRight=4;overflow=hidden;points=[[0,0.5],[1,0.5]];portConstraint=eastwest;rotatable=0;whiteSpace=wrap;html=1;" parent="CKcXtdMAVw7ahf70taSX-17" vertex="1">
          <mxGeometry y="74.95184135977337" width="139.0818691588785" height="24.47592067988668" as="geometry" />
        </mxCell>
        <mxCell id="CKcXtdMAVw7ahf70taSX-19" value="first_name&amp;nbsp;&lt;span style=&quot;caret-color: rgb(150, 150, 150); color: rgb(150, 150, 150);&quot;&gt;varchar(50)&lt;/span&gt;" style="text;strokeColor=none;fillColor=none;spacingLeft=4;spacingRight=4;overflow=hidden;rotatable=0;points=[[0,0.5],[1,0.5]];portConstraint=eastwest;fontSize=12;whiteSpace=wrap;html=1;" parent="CKcXtdMAVw7ahf70taSX-17" vertex="1">
          <mxGeometry y="99.42776203966005" width="139.0818691588785" height="24.47592067988668" as="geometry" />
        </mxCell>
        <mxCell id="CKcXtdMAVw7ahf70taSX-20" value="last_name&amp;nbsp;&lt;span style=&quot;caret-color: rgb(150, 150, 150); color: rgb(150, 150, 150);&quot;&gt;varchar(50)&lt;/span&gt;" style="text;strokeColor=none;fillColor=none;spacingLeft=4;spacingRight=4;overflow=hidden;rotatable=0;points=[[0,0.5],[1,0.5]];portConstraint=eastwest;fontSize=12;whiteSpace=wrap;html=1;" parent="CKcXtdMAVw7ahf70taSX-17" vertex="1">
          <mxGeometry y="123.90368271954674" width="139.0818691588785" height="24.47592067988668" as="geometry" />
        </mxCell>
        <mxCell id="CKcXtdMAVw7ahf70taSX-22" value="email&amp;nbsp;&lt;span style=&quot;caret-color: rgb(150, 150, 150); color: rgb(150, 150, 150);&quot;&gt;varchar(100)&lt;/span&gt;" style="text;strokeColor=none;fillColor=none;spacingLeft=4;spacingRight=4;overflow=hidden;rotatable=0;points=[[0,0.5],[1,0.5]];portConstraint=eastwest;fontSize=12;whiteSpace=wrap;html=1;" parent="CKcXtdMAVw7ahf70taSX-17" vertex="1">
          <mxGeometry y="148.37960339943342" width="139.0818691588785" height="24.47592067988668" as="geometry" />
        </mxCell>
        <mxCell id="CKcXtdMAVw7ahf70taSX-23" value="phone&amp;nbsp;&lt;span style=&quot;caret-color: rgb(150, 150, 150); color: rgb(150, 150, 150);&quot;&gt;varchar(15)&lt;/span&gt;" style="text;strokeColor=none;fillColor=none;spacingLeft=4;spacingRight=4;overflow=hidden;rotatable=0;points=[[0,0.5],[1,0.5]];portConstraint=eastwest;fontSize=12;whiteSpace=wrap;html=1;" parent="CKcXtdMAVw7ahf70taSX-17" vertex="1">
          <mxGeometry y="172.8555240793201" width="139.0818691588785" height="24.47592067988668" as="geometry" />
        </mxCell>
        <mxCell id="CKcXtdMAVw7ahf70taSX-25" value="Horses" style="swimlane;fontStyle=1;childLayout=stackLayout;horizontal=1;startSize=26;horizontalStack=0;resizeParent=1;resizeParentMax=0;resizeLast=0;collapsible=1;marginBottom=0;align=center;fontSize=14;fillColor=light-dark(#14BEC4,#14BEC4);fontColor=#ffffff;strokeColor=#006EAF;rounded=1;" parent="1" vertex="1">
          <mxGeometry x="-884.8684112149533" y="286.88385269121807" width="139.0818691588785" height="123.90368271954674" as="geometry">
            <mxRectangle x="280" y="-380" width="80" height="30" as="alternateBounds" />
          </mxGeometry>
        </mxCell>
        <mxCell id="CKcXtdMAVw7ahf70taSX-26" value="🔑 id&amp;nbsp;&lt;span style=&quot;caret-color: rgb(150, 150, 150); color: rgb(150, 150, 150);&quot;&gt;bigint&lt;/span&gt;" style="text;strokeColor=none;fillColor=none;spacingLeft=4;spacingRight=4;overflow=hidden;rotatable=0;points=[[0,0.5],[1,0.5]];portConstraint=eastwest;fontSize=12;whiteSpace=wrap;html=1;" parent="CKcXtdMAVw7ahf70taSX-25" vertex="1">
          <mxGeometry y="26" width="139.0818691588785" height="24.475920679886684" as="geometry" />
        </mxCell>
        <mxCell id="CKcXtdMAVw7ahf70taSX-27" value="name&amp;nbsp;&lt;span style=&quot;caret-color: rgb(150, 150, 150); color: rgb(150, 150, 150);&quot;&gt;varchar(50)&lt;/span&gt;" style="text;strokeColor=none;fillColor=none;spacingLeft=4;spacingRight=4;overflow=hidden;rotatable=0;points=[[0,0.5],[1,0.5]];portConstraint=eastwest;fontSize=12;whiteSpace=wrap;html=1;" parent="CKcXtdMAVw7ahf70taSX-25" vertex="1">
          <mxGeometry y="50.475920679886684" width="139.0818691588785" height="24.475920679886684" as="geometry" />
        </mxCell>
        <mxCell id="CKcXtdMAVw7ahf70taSX-28" value="age&amp;nbsp;&lt;span style=&quot;caret-color: rgb(150, 150, 150); color: rgb(150, 150, 150);&quot;&gt;bigint&lt;/span&gt;" style="text;strokeColor=none;fillColor=none;spacingLeft=4;spacingRight=4;overflow=hidden;rotatable=0;points=[[0,0.5],[1,0.5]];portConstraint=eastwest;fontSize=12;whiteSpace=wrap;html=1;" parent="CKcXtdMAVw7ahf70taSX-25" vertex="1">
          <mxGeometry y="74.95184135977337" width="139.0818691588785" height="24.475920679886684" as="geometry" />
        </mxCell>
        <mxCell id="CKcXtdMAVw7ahf70taSX-29" value="customer_id&amp;nbsp;&lt;span style=&quot;caret-color: rgb(150, 150, 150); color: rgb(150, 150, 150);&quot;&gt;bigint&lt;/span&gt;" style="text;strokeColor=none;fillColor=none;spacingLeft=4;spacingRight=4;overflow=hidden;rotatable=0;points=[[0,0.5],[1,0.5]];portConstraint=eastwest;fontSize=12;whiteSpace=wrap;html=1;" parent="CKcXtdMAVw7ahf70taSX-25" vertex="1">
          <mxGeometry y="99.42776203966005" width="139.0818691588785" height="24.475920679886684" as="geometry" />
        </mxCell>
        <mxCell id="CKcXtdMAVw7ahf70taSX-43" value="Consultation Details" style="swimlane;fontStyle=1;childLayout=stackLayout;horizontal=1;startSize=26;horizontalStack=0;resizeParent=1;resizeParentMax=0;resizeLast=0;collapsible=1;marginBottom=0;align=center;fontSize=14;fillColor=light-dark(#14BEC4,#14BEC4);fontColor=#ffffff;strokeColor=#006EAF;rounded=1;" parent="1" vertex="1">
          <mxGeometry x="-679.2456074766354" y="233.8526912181303" width="278.163738317757" height="172.8555240793201" as="geometry" />
        </mxCell>
        <mxCell id="CKcXtdMAVw7ahf70taSX-44" value="consultation_id&amp;nbsp;&lt;span style=&quot;caret-color: rgb(150, 150, 150); color: rgb(150, 150, 150);&quot;&gt;bigint&lt;/span&gt;" style="text;strokeColor=none;fillColor=none;spacingLeft=4;spacingRight=4;overflow=hidden;rotatable=0;points=[[0,0.5],[1,0.5]];portConstraint=eastwest;fontSize=12;whiteSpace=wrap;html=1;" parent="CKcXtdMAVw7ahf70taSX-43" vertex="1">
          <mxGeometry y="26" width="278.163738317757" height="24.475920679886688" as="geometry" />
        </mxCell>
        <mxCell id="CKcXtdMAVw7ahf70taSX-50" value="horse_id&amp;nbsp;&lt;span style=&quot;caret-color: rgb(150, 150, 150); color: rgb(150, 150, 150);&quot;&gt;bigint&lt;/span&gt;" style="text;strokeColor=none;fillColor=none;spacingLeft=4;spacingRight=4;overflow=hidden;rotatable=0;points=[[0,0.5],[1,0.5]];portConstraint=eastwest;fontSize=12;whiteSpace=wrap;html=1;" parent="CKcXtdMAVw7ahf70taSX-43" vertex="1">
          <mxGeometry y="50.475920679886684" width="278.163738317757" height="24.475920679886688" as="geometry" />
        </mxCell>
        <mxCell id="CKcXtdMAVw7ahf70taSX-49" value="product_id&amp;nbsp;&lt;span style=&quot;caret-color: rgb(150, 150, 150); color: rgb(150, 150, 150);&quot;&gt;bigint&lt;/span&gt;" style="text;strokeColor=none;fillColor=none;spacingLeft=4;spacingRight=4;overflow=hidden;rotatable=0;points=[[0,0.5],[1,0.5]];portConstraint=eastwest;fontSize=12;whiteSpace=wrap;html=1;" parent="CKcXtdMAVw7ahf70taSX-43" vertex="1">
          <mxGeometry y="74.95184135977337" width="278.163738317757" height="24.475920679886688" as="geometry" />
        </mxCell>
        <mxCell id="CKcXtdMAVw7ahf70taSX-45" value="user_id&amp;nbsp;&lt;span style=&quot;caret-color: rgb(150, 150, 150); color: rgb(150, 150, 150);&quot;&gt;bigint&lt;/span&gt;" style="text;strokeColor=none;fillColor=none;spacingLeft=4;spacingRight=4;overflow=hidden;rotatable=0;points=[[0,0.5],[1,0.5]];portConstraint=eastwest;fontSize=12;whiteSpace=wrap;html=1;" parent="CKcXtdMAVw7ahf70taSX-43" vertex="1">
          <mxGeometry y="99.42776203966005" width="278.163738317757" height="24.475920679886688" as="geometry" />
        </mxCell>
        <mxCell id="CKcXtdMAVw7ahf70taSX-52" value="quantity&amp;nbsp;&lt;span style=&quot;caret-color: rgb(150, 150, 150); color: rgb(150, 150, 150);&quot;&gt;int&lt;/span&gt;" style="text;strokeColor=none;fillColor=none;spacingLeft=4;spacingRight=4;overflow=hidden;rotatable=0;points=[[0,0.5],[1,0.5]];portConstraint=eastwest;fontSize=12;whiteSpace=wrap;html=1;" parent="CKcXtdMAVw7ahf70taSX-43" vertex="1">
          <mxGeometry y="123.90368271954674" width="278.163738317757" height="24.475920679886688" as="geometry" />
        </mxCell>
        <mxCell id="CKcXtdMAVw7ahf70taSX-47" value="🗝️ consultation_id, product_id, user_id" style="text;strokeColor=none;fillColor=none;spacingLeft=4;spacingRight=4;overflow=hidden;rotatable=0;points=[[0,0.5],[1,0.5]];portConstraint=eastwest;fontSize=12;whiteSpace=wrap;html=1;" parent="CKcXtdMAVw7ahf70taSX-43" vertex="1">
          <mxGeometry y="148.37960339943342" width="278.163738317757" height="24.475920679886688" as="geometry" />
        </mxCell>
        <mxCell id="CKcXtdMAVw7ahf70taSX-53" value="Product Catalogs" style="swimlane;fontStyle=1;childLayout=stackLayout;horizontal=1;startSize=26;horizontalStack=0;resizeParent=1;resizeParentMax=0;resizeLast=0;collapsible=1;marginBottom=0;align=center;fontSize=14;fillColor=light-dark(#14BEC4,#14BEC4);fontColor=#ffffff;strokeColor=light-dark(#14A0C4,#14A0C4);rounded=1;" parent="1" vertex="1">
          <mxGeometry x="-644.4751401869158" y="9.490084985835693" width="156.46710280373833" height="148.37960339943342" as="geometry" />
        </mxCell>
        <mxCell id="X7S9yRfPSGuuE0dQ269w-8" style="edgeStyle=orthogonalEdgeStyle;rounded=0;orthogonalLoop=1;jettySize=auto;html=1;exitX=1;exitY=0.5;exitDx=0;exitDy=0;endArrow=none;endFill=0;strokeColor=light-dark(#000000,#14BEC4);" edge="1" parent="CKcXtdMAVw7ahf70taSX-53" source="CKcXtdMAVw7ahf70taSX-54">
          <mxGeometry relative="1" as="geometry">
            <mxPoint x="271.47514018691584" y="38.50991501416431" as="targetPoint" />
            <Array as="points">
              <mxPoint x="217" y="38" />
              <mxPoint x="277" y="38" />
            </Array>
          </mxGeometry>
        </mxCell>
        <mxCell id="CKcXtdMAVw7ahf70taSX-54" value="🔑 id &lt;span style=&quot;caret-color: rgb(150, 150, 150); color: rgb(150, 150, 150);&quot;&gt;bigint&lt;/span&gt;" style="text;strokeColor=none;fillColor=none;spacingLeft=4;spacingRight=4;overflow=hidden;rotatable=0;points=[[0,0.5],[1,0.5]];portConstraint=eastwest;fontSize=12;whiteSpace=wrap;html=1;" parent="CKcXtdMAVw7ahf70taSX-53" vertex="1">
          <mxGeometry y="26" width="156.46710280373833" height="24.47592067988668" as="geometry" />
        </mxCell>
        <mxCell id="CKcXtdMAVw7ahf70taSX-55" value="name&amp;nbsp;&lt;span style=&quot;caret-color: rgb(150, 150, 150); color: rgb(150, 150, 150);&quot;&gt;varchar(50)&lt;/span&gt;" style="text;strokeColor=none;fillColor=none;spacingLeft=4;spacingRight=4;overflow=hidden;rotatable=0;points=[[0,0.5],[1,0.5]];portConstraint=eastwest;fontSize=12;whiteSpace=wrap;html=1;" parent="CKcXtdMAVw7ahf70taSX-53" vertex="1">
          <mxGeometry y="50.475920679886684" width="156.46710280373833" height="24.47592067988668" as="geometry" />
        </mxCell>
        <mxCell id="CKcXtdMAVw7ahf70taSX-56" value="type&amp;nbsp;&lt;span style=&quot;caret-color: rgb(150, 150, 150); color: rgb(150, 150, 150);&quot;&gt;varchar(20)&lt;/span&gt;" style="text;strokeColor=none;fillColor=none;spacingLeft=4;spacingRight=4;overflow=hidden;rotatable=0;points=[[0,0.5],[1,0.5]];portConstraint=eastwest;fontSize=12;whiteSpace=wrap;html=1;" parent="CKcXtdMAVw7ahf70taSX-53" vertex="1">
          <mxGeometry y="74.95184135977337" width="156.46710280373833" height="24.47592067988668" as="geometry" />
        </mxCell>
        <mxCell id="CKcXtdMAVw7ahf70taSX-57" value="price&amp;nbsp;&lt;span style=&quot;caret-color: rgb(150, 150, 150); color: rgb(150, 150, 150);&quot;&gt;numeric(10, 2)&lt;/span&gt;" style="text;strokeColor=none;fillColor=none;spacingLeft=4;spacingRight=4;overflow=hidden;rotatable=0;points=[[0,0.5],[1,0.5]];portConstraint=eastwest;fontSize=12;whiteSpace=wrap;html=1;" parent="CKcXtdMAVw7ahf70taSX-53" vertex="1">
          <mxGeometry y="99.42776203966005" width="156.46710280373833" height="24.47592067988668" as="geometry" />
        </mxCell>
        <mxCell id="CKcXtdMAVw7ahf70taSX-58" value="user_id&amp;nbsp;&lt;span style=&quot;caret-color: rgb(150, 150, 150); color: rgb(150, 150, 150);&quot;&gt;bigint&lt;/span&gt;" style="text;strokeColor=none;fillColor=none;spacingLeft=4;spacingRight=4;overflow=hidden;rotatable=0;points=[[0,0.5],[1,0.5]];portConstraint=eastwest;fontSize=12;whiteSpace=wrap;html=1;" parent="CKcXtdMAVw7ahf70taSX-53" vertex="1">
          <mxGeometry y="123.90368271954674" width="156.46710280373833" height="24.47592067988668" as="geometry" />
        </mxCell>
        <mxCell id="CKcXtdMAVw7ahf70taSX-71" value="" style="edgeStyle=entityRelationEdgeStyle;fontSize=12;html=1;endArrow=ERoneToMany;rounded=0;exitX=1;exitY=0.5;exitDx=0;exitDy=0;entryX=0;entryY=0.5;entryDx=0;entryDy=0;fillColor=#1ba1e2;strokeColor=light-dark(#14BEC4,#14BEC4);" parent="1" source="CKcXtdMAVw7ahf70taSX-18" target="CKcXtdMAVw7ahf70taSX-29" edge="1">
          <mxGeometry width="100" height="100" relative="1" as="geometry">
            <mxPoint x="-601.0120560747664" y="490.84985835694044" as="sourcePoint" />
            <mxPoint x="-514.0858878504673" y="409.2634560906515" as="targetPoint" />
          </mxGeometry>
        </mxCell>
        <mxCell id="CKcXtdMAVw7ahf70taSX-72" value="" style="edgeStyle=entityRelationEdgeStyle;fontSize=12;html=1;endArrow=ERoneToMany;rounded=0;exitX=1;exitY=0.5;exitDx=0;exitDy=0;fillColor=#1ba1e2;strokeColor=light-dark(#14BEC4,#14BEC4);" parent="1" source="CKcXtdMAVw7ahf70taSX-26" target="CKcXtdMAVw7ahf70taSX-34" edge="1">
          <mxGeometry width="100" height="100" relative="1" as="geometry">
            <mxPoint x="-348.9261682242991" y="605.070821529745" as="sourcePoint" />
            <mxPoint x="-262" y="523.4844192634561" as="targetPoint" />
          </mxGeometry>
        </mxCell>
        <mxCell id="CKcXtdMAVw7ahf70taSX-88" value="" style="edgeStyle=entityRelationEdgeStyle;fontSize=12;html=1;endArrow=ERoneToMany;rounded=0;entryX=1;entryY=0.5;entryDx=0;entryDy=0;fillColor=#1ba1e2;strokeColor=light-dark(#14BEC4,#14BEC4);" parent="1" target="CKcXtdMAVw7ahf70taSX-44" edge="1">
          <mxGeometry width="100" height="100" relative="1" as="geometry">
            <mxPoint x="-396.7355607476636" y="198.77053824362605" as="sourcePoint" />
            <mxPoint x="-209.8442990654204" y="352.1529745042492" as="targetPoint" />
            <Array as="points">
              <mxPoint x="-262" y="229.77337110481585" />
              <mxPoint x="-375.00401869158884" y="237.93201133144476" />
              <mxPoint x="-322.84831775700934" y="237.93201133144476" />
            </Array>
          </mxGeometry>
        </mxCell>
        <mxCell id="CKcXtdMAVw7ahf70taSX-89" value="" style="endArrow=none;html=1;rounded=0;exitX=1;exitY=0.5;exitDx=0;exitDy=0;strokeColor=light-dark(#000000,#14BEC4);" parent="1" edge="1" source="CKcXtdMAVw7ahf70taSX-33">
          <mxGeometry width="50" height="50" relative="1" as="geometry">
            <mxPoint x="-331.5409345794392" y="352.1529745042492" as="sourcePoint" />
            <mxPoint x="-370.65771028037386" y="198.77053824362605" as="targetPoint" />
          </mxGeometry>
        </mxCell>
        <mxCell id="CKcXtdMAVw7ahf70taSX-122" value="&lt;b&gt;User-Customer&lt;/b&gt;" style="swimlane;fontStyle=0;childLayout=stackLayout;horizontal=1;startSize=30;horizontalStack=0;resizeParent=1;resizeParentMax=0;resizeLast=0;collapsible=1;marginBottom=0;whiteSpace=wrap;html=1;rounded=1;fillColor=light-dark(#14BEC4,#14BEC4);fontColor=#ffffff;strokeColor=#006EAF;" parent="1" vertex="1">
          <mxGeometry x="-1105.1838317757008" y="55.17847025495752" width="182.54495327102802" height="103.42776203966005" as="geometry" />
        </mxCell>
        <mxCell id="CKcXtdMAVw7ahf70taSX-123" value="user_id &amp;nbsp;&lt;span style=&quot;color: rgb(150, 150, 150);&quot;&gt;bigint&lt;/span&gt;" style="text;strokeColor=none;fillColor=none;align=left;verticalAlign=middle;spacingLeft=4;spacingRight=4;overflow=hidden;points=[[0,0.5],[1,0.5]];portConstraint=eastwest;rotatable=0;whiteSpace=wrap;html=1;" parent="CKcXtdMAVw7ahf70taSX-122" vertex="1">
          <mxGeometry y="30" width="182.54495327102802" height="24.475920679886688" as="geometry" />
        </mxCell>
        <mxCell id="CKcXtdMAVw7ahf70taSX-124" value="customer_id &lt;font color=&quot;#969696&quot;&gt;&lt;span style=&quot;caret-color: rgb(150, 150, 150);&quot;&gt;bigint&lt;/span&gt;&lt;/font&gt;" style="text;strokeColor=none;fillColor=none;align=left;verticalAlign=middle;spacingLeft=4;spacingRight=4;overflow=hidden;points=[[0,0.5],[1,0.5]];portConstraint=eastwest;rotatable=0;whiteSpace=wrap;html=1;" parent="CKcXtdMAVw7ahf70taSX-122" vertex="1">
          <mxGeometry y="54.475920679886684" width="182.54495327102802" height="24.475920679886688" as="geometry" />
        </mxCell>
        <mxCell id="CKcXtdMAVw7ahf70taSX-127" value="🗝️ user_id, customer_id" style="text;strokeColor=none;fillColor=none;align=left;verticalAlign=middle;spacingLeft=4;spacingRight=4;overflow=hidden;points=[[0,0.5],[1,0.5]];portConstraint=eastwest;rotatable=0;whiteSpace=wrap;html=1;" parent="CKcXtdMAVw7ahf70taSX-122" vertex="1">
          <mxGeometry y="78.95184135977337" width="182.54495327102802" height="24.475920679886688" as="geometry" />
        </mxCell>
        <mxCell id="CKcXtdMAVw7ahf70taSX-128" value="" style="edgeStyle=entityRelationEdgeStyle;fontSize=12;html=1;endArrow=ERoneToMany;rounded=0;exitX=0;exitY=0.5;exitDx=0;exitDy=0;entryX=1;entryY=0.5;entryDx=0;entryDy=0;fillColor=#1ba1e2;strokeColor=light-dark(#14BEC4,#14BEC4);" parent="1" source="CKcXtdMAVw7ahf70taSX-4" target="CKcXtdMAVw7ahf70taSX-123" edge="1">
          <mxGeometry width="100" height="100" relative="1" as="geometry">
            <mxPoint x="-1026.9502803738317" y="580.5949008498583" as="sourcePoint" />
            <mxPoint x="-940.0241121495327" y="499.00849858356935" as="targetPoint" />
            <Array as="points">
              <mxPoint x="-882" y="-70" />
            </Array>
          </mxGeometry>
        </mxCell>
        <mxCell id="CKcXtdMAVw7ahf70taSX-135" value="" style="edgeStyle=entityRelationEdgeStyle;fontSize=12;html=1;endArrow=ERoneToMany;rounded=0;entryX=0;entryY=0.5;entryDx=0;entryDy=0;fillColor=#1ba1e2;strokeColor=light-dark(#14BEC4,#14BEC4);" parent="1" target="CKcXtdMAVw7ahf70taSX-58" edge="1">
          <mxGeometry width="100" height="100" relative="1" as="geometry">
            <mxPoint x="-674" y="146" as="sourcePoint" />
            <mxPoint x="-748.7865420560747" y="286.88385269121807" as="targetPoint" />
            <Array as="points">
              <mxPoint x="-682" y="30" />
              <mxPoint x="-678" y="156" />
            </Array>
          </mxGeometry>
        </mxCell>
        <mxCell id="CKcXtdMAVw7ahf70taSX-136" value="" style="edgeStyle=entityRelationEdgeStyle;fontSize=12;html=1;endArrow=ERoneToMany;rounded=0;fillColor=#1ba1e2;strokeColor=light-dark(#14BEC4,#14BEC4);entryX=1;entryY=0.5;entryDx=0;entryDy=0;" parent="1" target="CKcXtdMAVw7ahf70taSX-49" edge="1">
          <mxGeometry width="100" height="100" relative="1" as="geometry">
            <mxPoint x="-378" y="48" as="sourcePoint" />
            <mxPoint x="-346.3183831775701" y="316.25495750708217" as="targetPoint" />
          </mxGeometry>
        </mxCell>
        <mxCell id="X7S9yRfPSGuuE0dQ269w-2" value="" style="edgeStyle=entityRelationEdgeStyle;fontSize=12;html=1;endArrow=ERoneToMany;rounded=0;entryX=0;entryY=0.5;entryDx=0;entryDy=0;strokeColor=light-dark(#000000,#14BEC4);" edge="1" parent="1" target="CKcXtdMAVw7ahf70taSX-18">
          <mxGeometry width="100" height="100" relative="1" as="geometry">
            <mxPoint x="-1139" y="252" as="sourcePoint" />
            <mxPoint x="-861.7905607476636" y="254.24929178470256" as="targetPoint" />
            <Array as="points">
              <mxPoint x="-1148.6469158878504" y="148.18696883852687" />
              <mxPoint x="-1192.11" y="188.9801699716714" />
              <mxPoint x="-1139.9542990654204" y="123.71104815864021" />
              <mxPoint x="-1166.0321495327103" y="270.5665722379603" />
            </Array>
          </mxGeometry>
        </mxCell>
        <mxCell id="X7S9yRfPSGuuE0dQ269w-5" style="edgeStyle=orthogonalEdgeStyle;rounded=0;orthogonalLoop=1;jettySize=auto;html=1;exitX=0;exitY=0.5;exitDx=0;exitDy=0;entryX=0;entryY=0.5;entryDx=0;entryDy=0;endArrow=none;endFill=0;strokeColor=light-dark(#000000,#14BEC4);" edge="1" parent="1" source="CKcXtdMAVw7ahf70taSX-124" target="CKcXtdMAVw7ahf70taSX-18">
          <mxGeometry relative="1" as="geometry">
            <Array as="points">
              <mxPoint x="-1105" y="116" />
              <mxPoint x="-1140" y="116" />
              <mxPoint x="-1140" y="252" />
              <mxPoint x="-1083" y="252" />
            </Array>
          </mxGeometry>
        </mxCell>
        <mxCell id="CKcXtdMAVw7ahf70taSX-32" value="Consultations" style="swimlane;fontStyle=1;childLayout=stackLayout;horizontal=1;startSize=26;horizontalStack=0;resizeParent=1;resizeParentMax=0;resizeLast=0;collapsible=1;marginBottom=0;align=center;fontSize=14;fillColor=light-dark(#14BEC4,#14BEC4);fontColor=#ffffff;strokeColor=#006EAF;rounded=1;" parent="1" vertex="1">
          <mxGeometry x="-887.8684112149533" y="164.50424929178467" width="156.46710280373833" height="99.42776203966005" as="geometry" />
        </mxCell>
        <mxCell id="CKcXtdMAVw7ahf70taSX-33" value="🔑 id&amp;nbsp;&lt;span data-darkreader-inline-color=&quot;&quot; style=&quot;caret-color: rgb(150, 150, 150); color: rgb(150, 150, 150); --darkreader-inline-color: light-dark(#a49c90, #6c655b);&quot;&gt;bigint&lt;/span&gt;" style="text;strokeColor=none;fillColor=none;spacingLeft=4;spacingRight=4;overflow=hidden;rotatable=0;points=[[0,0.5],[1,0.5]];portConstraint=eastwest;fontSize=12;whiteSpace=wrap;html=1;" parent="CKcXtdMAVw7ahf70taSX-32" vertex="1">
          <mxGeometry y="26" width="156.46710280373833" height="24.475920679886684" as="geometry" />
        </mxCell>
        <mxCell id="CKcXtdMAVw7ahf70taSX-34" value="horse_id&amp;nbsp;&lt;span style=&quot;caret-color: rgb(150, 150, 150); color: rgb(150, 150, 150);&quot;&gt;bigint&lt;/span&gt;" style="text;strokeColor=none;fillColor=none;spacingLeft=4;spacingRight=4;overflow=hidden;rotatable=0;points=[[0,0.5],[1,0.5]];portConstraint=eastwest;fontSize=12;whiteSpace=wrap;html=1;" parent="CKcXtdMAVw7ahf70taSX-32" vertex="1">
          <mxGeometry y="50.475920679886684" width="156.46710280373833" height="24.475920679886684" as="geometry" />
        </mxCell>
        <mxCell id="CKcXtdMAVw7ahf70taSX-35" value="timestamp&amp;nbsp;&lt;span style=&quot;caret-color: rgb(150, 150, 150); color: rgb(150, 150, 150);&quot;&gt;timestamp&lt;/span&gt;" style="text;strokeColor=none;fillColor=none;spacingLeft=4;spacingRight=4;overflow=hidden;rotatable=0;points=[[0,0.5],[1,0.5]];portConstraint=eastwest;fontSize=12;whiteSpace=wrap;html=1;" parent="CKcXtdMAVw7ahf70taSX-32" vertex="1">
          <mxGeometry y="74.95184135977337" width="156.46710280373833" height="24.475920679886684" as="geometry" />
        </mxCell>
        <mxCell id="X7S9yRfPSGuuE0dQ269w-10" style="edgeStyle=orthogonalEdgeStyle;rounded=0;orthogonalLoop=1;jettySize=auto;html=1;entryX=0;entryY=0.5;entryDx=0;entryDy=0;endArrow=none;endFill=0;strokeColor=light-dark(#000000,#14BEC4);" edge="1" parent="1" source="CKcXtdMAVw7ahf70taSX-4" target="CKcXtdMAVw7ahf70taSX-58">
          <mxGeometry relative="1" as="geometry" />
        </mxCell>
        <mxCell id="X7S9yRfPSGuuE0dQ269w-15" value="" style="rounded=0;whiteSpace=wrap;html=1;fillColor=light-dark(#FFFFFF,#000000);strokeColor=light-dark(#000000,#000000);" vertex="1" parent="1">
          <mxGeometry x="-698" y="126" width="30" height="30" as="geometry" />
        </mxCell>
      </root>
    </mxGraphModel>
  </diagram>
</mxfile>
